# xmcd CD database file
#
# Track frame offsets:
#	183
#	16250
#	31903
#	46775
#	59123
#	75018
#	88215
#	99175
#	114218
#	126163
#	135995
#	148038
#	160298
#	173250
#	186358
#	201433
#	214125
#	225955
#	239980
#	250693
#
# Disc length: 3534 seconds
#
# Revision: 1
# Processed by: cddbd v1.5PL3 Copyright (c) Steve Scherf et al.
# Submitted via: CDex 1.50
#
DISCID=030dcc14
DTITLE=Billie Jo Spears - singles
DYEAR=1988
DGENRE=Country
TTITLE0=Blanket On The Ground
TTITLE1=Silver Wings And Golden Rings
TTITLE2=Another Somebody Done Somebody Wrong Song
TTITLE3=What I've Got In Mind
TTITLE4=Sing Me An Old Fashioned Song
TTITLE5=Every Time Two Fools Collide
TTITLE6=If You Want Me
TTITLE7=Every Time I Sing A Love Song
TTITLE8=Misty Blue
TTITLE9=Never Did Like Whiskey
TTITLE10=I've Got To Go
TTITLE11=Lonely Hearts Club
TTITLE12='57 Chevrolet
TTITLE13=Love Ain't Gonna Wait For Us
TTITLE14=I Will Survive
TTITLE15=Livin' Our Love Together
TTITLE16=Rainy Days and Stormy Nights
TTITLE17=Standing Tall
TTITLE18=Your Good Girl's Gonna Go Bad
TTITLE19=Any Ole Wind That Blows
EXTD=YEAR: 1988
EXTT0=
EXTT1=
EXTT2=
EXTT3=
EXTT4=
EXTT5=
EXTT6=
EXTT7=
EXTT8=
EXTT9=
EXTT10=
EXTT11=
EXTT12=
EXTT13=
EXTT14=
EXTT15=
EXTT16=
EXTT17=
EXTT18=
EXTT19=
PLAYORDER=
